# xmcd
#
# Track frame offsets:
# 150
# 15836
# 29181
# 46003
# 61688
# 74436
# 86146
# 101674
# 115916
# 132493
# 147396
# 160664
# 172403
#
# Disc length: 2497 seconds
#
#
# Revision: 1
# Processed by: cddbd v1.5.2PL0 Copyright (c) Steve Scherf et al.
# Submitted via: FreeRIP 2.96 
#
DISCID=b609bf0d
DTITLE=Batidão Sertanejo 2 - CD 1 - Batidão Sertanejo 2 - CD 1
DYEAR=2010
DGENRE=Country
TTITLE0=Adrenalina - Luan Santana
TTITLE1=Tô Passando Mal - Fernando and Sorocaba
TTITLE2=Larga de Bobeira (Ao Vivo) Michel Teló
TTITLE3=Chora - João Neto and Frederico
TTITLE4=Casa Das Prima - João Marcio and Fabiano
TTITLE5=Gordinho - Jeann and Julio
TTITLE6=Zoar e Beber - Henrique and Diego
TTITLE7=100% Paixão - Adair Cardoso
TTITLE8=É Pra Cabá - (Ao Vivo) João Carreiro and Capataz
TTITLE9=Usou e Abusou - Adson and Alana
TTITLE10=Agora é Do Meu Jeito - Patrícia and Adriana
TTITLE11=Bora Se Acabar - Marcos and Belutti
TTITLE12=Pondera - Lucas and Luan
EXTD=Ano 2010 - M. P. A.
EXTT0=
EXTT1=
EXTT2=
EXTT3=
EXTT4=
EXTT5=
EXTT6=
EXTT7=
EXTT8=
EXTT9=
EXTT10=
EXTT11=
EXTT12=
PLAYORDER=
